G04 #@! TF.FileFunction,Copper,L1,Top,Signal*
%FSLAX46Y46*%
G04 Gerber Fmt 4.6, Leading zero omitted, Abs format (unit mm)*
G04 Created by KiCad (PCBNEW 4.0.7-e2-6376~58~ubuntu16.04.1) date Fri Oct 19 14:23:41 2018*
%MOMM*%
%LPD*%
G01*
G04 APERTURE LIST*
%ADD10C,0.100000*%
%ADD11R,2.000000X2.850000*%
%ADD12R,0.600000X0.500000*%
%ADD13R,3.000000X0.800000*%
%ADD14R,2.000000X0.600000*%
%ADD15C,0.600000*%
%ADD16C,0.300000*%
G04 APERTURE END LIST*
D10*
D11*
X64300000Y-49175000D03*
X67500000Y-49175000D03*
X71000000Y-49175000D03*
X64300000Y-55825000D03*
X67500000Y-55825000D03*
X71000000Y-55825000D03*
D12*
X96950000Y-40250000D03*
X94550000Y-40250000D03*
D13*
X95750000Y-39600000D03*
D14*
X95800000Y-40450000D03*
X95750000Y-42050000D03*
D13*
X95750000Y-42900000D03*
D12*
X94550000Y-42250000D03*
X96950000Y-42250000D03*
X91200000Y-40750000D03*
X88800000Y-40750000D03*
D13*
X90000000Y-40100000D03*
D14*
X90050000Y-40950000D03*
X90000000Y-42550000D03*
D13*
X90000000Y-43400000D03*
D12*
X88800000Y-42750000D03*
X91200000Y-42750000D03*
D15*
X72750000Y-55250000D03*
X91750000Y-41500000D03*
X97500000Y-41000000D03*
X96000000Y-47000000D03*
D16*
X72175000Y-55825000D02*
X71000000Y-55825000D01*
X72750000Y-55250000D02*
X72175000Y-55825000D01*
X70750000Y-48925000D02*
X70750000Y-55575000D01*
X91750000Y-40500000D02*
X91750000Y-41500000D01*
X91750000Y-40500000D02*
X91350000Y-40100000D01*
X90000000Y-40100000D02*
X91350000Y-40100000D01*
X90350000Y-40100000D02*
X90000000Y-40100000D01*
X97350000Y-39600000D02*
X97500000Y-39750000D01*
X97500000Y-39750000D02*
X97500000Y-41000000D01*
X97350000Y-39600000D02*
X95750000Y-39600000D01*
X95750000Y-39600000D02*
X96100000Y-39600000D01*
X95750000Y-46750000D02*
X96000000Y-47000000D01*
X95750000Y-44500000D02*
X95750000Y-46750000D01*
X92250000Y-44500000D02*
X95750000Y-44500000D01*
X95750000Y-42900000D02*
X95750000Y-44500000D01*
X90000000Y-43400000D02*
X90000000Y-45000000D01*
X90000000Y-45000000D02*
X88750000Y-46250000D01*
X90000000Y-43400000D02*
X91150000Y-43400000D01*
X91150000Y-43400000D02*
X92250000Y-44500000D01*
X64300000Y-47450000D02*
X64300000Y-49175000D01*
X65500000Y-46250000D02*
X64300000Y-47450000D01*
X88750000Y-46250000D02*
X65500000Y-46250000D01*
X64060000Y-49205000D02*
X64060000Y-50190000D01*
X64060000Y-50190000D02*
X62750000Y-51500000D01*
X62750000Y-53250000D02*
X64050000Y-54550000D01*
X62750000Y-51500000D02*
X62750000Y-53250000D01*
X64050000Y-54550000D02*
X64050000Y-55575000D01*
X64050000Y-48925000D02*
X64050000Y-49950000D01*
X67250000Y-48925000D02*
X67250000Y-55575000D01*
M02*
