G04 #@! TF.FileFunction,Other,Fab,Top*
%FSLAX46Y46*%
G04 Gerber Fmt 4.6, Leading zero omitted, Abs format (unit mm)*
G04 Created by KiCad (PCBNEW 4.0.7-e2-6376~58~ubuntu16.04.1) date Fri Oct 19 14:23:41 2018*
%MOMM*%
%LPD*%
G01*
G04 APERTURE LIST*
%ADD10C,0.100000*%
%ADD11C,0.050000*%
%ADD12C,0.150000*%
G04 APERTURE END LIST*
D10*
D11*
X71750000Y-52500000D02*
G75*
G03X71750000Y-52500000I-750000J0D01*
G01*
X65750000Y-52500000D02*
G75*
G03X65750000Y-52500000I-750000J0D01*
G01*
D12*
X58380381Y-58754381D02*
X57380381Y-58754381D01*
X57380381Y-58516286D01*
X57428000Y-58373428D01*
X57523238Y-58278190D01*
X57618476Y-58230571D01*
X57808952Y-58182952D01*
X57951810Y-58182952D01*
X58142286Y-58230571D01*
X58237524Y-58278190D01*
X58332762Y-58373428D01*
X58380381Y-58516286D01*
X58380381Y-58754381D01*
X58285143Y-57182952D02*
X58332762Y-57230571D01*
X58380381Y-57373428D01*
X58380381Y-57468666D01*
X58332762Y-57611524D01*
X58237524Y-57706762D01*
X58142286Y-57754381D01*
X57951810Y-57802000D01*
X57808952Y-57802000D01*
X57618476Y-57754381D01*
X57523238Y-57706762D01*
X57428000Y-57611524D01*
X57380381Y-57468666D01*
X57380381Y-57373428D01*
X57428000Y-57230571D01*
X57475619Y-57182952D01*
X58475619Y-56992476D02*
X58475619Y-56230571D01*
X57380381Y-55706761D02*
X58094667Y-55706761D01*
X58237524Y-55754381D01*
X58332762Y-55849619D01*
X58380381Y-55992476D01*
X58380381Y-56087714D01*
X58094667Y-55278190D02*
X58094667Y-54801999D01*
X58380381Y-55373428D02*
X57380381Y-55040095D01*
X58380381Y-54706761D01*
X58285143Y-53801999D02*
X58332762Y-53849618D01*
X58380381Y-53992475D01*
X58380381Y-54087713D01*
X58332762Y-54230571D01*
X58237524Y-54325809D01*
X58142286Y-54373428D01*
X57951810Y-54421047D01*
X57808952Y-54421047D01*
X57618476Y-54373428D01*
X57523238Y-54325809D01*
X57428000Y-54230571D01*
X57380381Y-54087713D01*
X57380381Y-53992475D01*
X57428000Y-53849618D01*
X57475619Y-53801999D01*
X58380381Y-53373428D02*
X57380381Y-53373428D01*
X58380381Y-52801999D02*
X57808952Y-53230571D01*
X57380381Y-52801999D02*
X57951810Y-53373428D01*
X100361905Y-42552381D02*
X99885714Y-42552381D01*
X99885714Y-41552381D01*
X100695238Y-42028571D02*
X101028572Y-42028571D01*
X101171429Y-42552381D02*
X100695238Y-42552381D01*
X100695238Y-41552381D01*
X101171429Y-41552381D01*
X101600000Y-42552381D02*
X101600000Y-41552381D01*
X101838095Y-41552381D01*
X101980953Y-41600000D01*
X102076191Y-41695238D01*
X102123810Y-41790476D01*
X102171429Y-41980952D01*
X102171429Y-42123810D01*
X102123810Y-42314286D01*
X102076191Y-42409524D01*
X101980953Y-42504762D01*
X101838095Y-42552381D01*
X101600000Y-42552381D01*
X102361905Y-42647619D02*
X103123810Y-42647619D01*
X103314286Y-42266667D02*
X103790477Y-42266667D01*
X103219048Y-42552381D02*
X103552381Y-41552381D01*
X103885715Y-42552381D01*
X104695239Y-42552381D02*
X104219048Y-42552381D01*
X104219048Y-41552381D01*
X104885715Y-41552381D02*
X105457144Y-41552381D01*
X105171429Y-42552381D02*
X105171429Y-41552381D01*
X81861905Y-40652381D02*
X81385714Y-40652381D01*
X81385714Y-39652381D01*
X82195238Y-40128571D02*
X82528572Y-40128571D01*
X82671429Y-40652381D02*
X82195238Y-40652381D01*
X82195238Y-39652381D01*
X82671429Y-39652381D01*
X83100000Y-40652381D02*
X83100000Y-39652381D01*
X83338095Y-39652381D01*
X83480953Y-39700000D01*
X83576191Y-39795238D01*
X83623810Y-39890476D01*
X83671429Y-40080952D01*
X83671429Y-40223810D01*
X83623810Y-40414286D01*
X83576191Y-40509524D01*
X83480953Y-40604762D01*
X83338095Y-40652381D01*
X83100000Y-40652381D01*
X83861905Y-40747619D02*
X84623810Y-40747619D01*
X84814286Y-40366667D02*
X85290477Y-40366667D01*
X84719048Y-40652381D02*
X85052381Y-39652381D01*
X85385715Y-40652381D01*
X86195239Y-40652381D02*
X85719048Y-40652381D01*
X85719048Y-39652381D01*
X86385715Y-39652381D02*
X86957144Y-39652381D01*
X86671429Y-40652381D02*
X86671429Y-39652381D01*
M02*
