G04 #@! TF.FileFunction,Legend,Top*
%FSLAX46Y46*%
G04 Gerber Fmt 4.6, Leading zero omitted, Abs format (unit mm)*
G04 Created by KiCad (PCBNEW 4.0.7-e2-6376~58~ubuntu16.04.1) date Fri Oct 19 14:23:41 2018*
%MOMM*%
%LPD*%
G01*
G04 APERTURE LIST*
%ADD10C,0.100000*%
%ADD11C,0.150000*%
%ADD12C,0.010000*%
%ADD13C,0.050000*%
%ADD14C,0.120000*%
G04 APERTURE END LIST*
D10*
D11*
X89695238Y-44557143D02*
X90304762Y-44557143D01*
X90000000Y-44861905D02*
X90000000Y-44252381D01*
X95445238Y-44057143D02*
X96054762Y-44057143D01*
X95750000Y-44361905D02*
X95750000Y-43752381D01*
D12*
G36*
X63030599Y-35391901D02*
X63424452Y-35394956D01*
X63875621Y-35400936D01*
X64393188Y-35409848D01*
X64986236Y-35421693D01*
X64989833Y-35421769D01*
X65615042Y-35435324D01*
X66162288Y-35448439D01*
X66638267Y-35461804D01*
X67049675Y-35476111D01*
X67403209Y-35492050D01*
X67705564Y-35510314D01*
X67963436Y-35531593D01*
X68183522Y-35556577D01*
X68372518Y-35585959D01*
X68537119Y-35620430D01*
X68684023Y-35660679D01*
X68819924Y-35707400D01*
X68951519Y-35761281D01*
X69085505Y-35823016D01*
X69141707Y-35850278D01*
X69393523Y-35992574D01*
X69623990Y-36165409D01*
X69837926Y-36375918D01*
X70040154Y-36631234D01*
X70235492Y-36938491D01*
X70428762Y-37304821D01*
X70624784Y-37737360D01*
X70828378Y-38243239D01*
X70916207Y-38476333D01*
X70977107Y-38644713D01*
X71061119Y-38883033D01*
X71164673Y-39180882D01*
X71284201Y-39527847D01*
X71416132Y-39913517D01*
X71556897Y-40327478D01*
X71702926Y-40759320D01*
X71850650Y-41198630D01*
X71899480Y-41344416D01*
X72639587Y-43556333D01*
X87442479Y-43556333D01*
X87464919Y-43376416D01*
X87471925Y-43283820D01*
X87479502Y-43120815D01*
X87487185Y-42901651D01*
X87494512Y-42640581D01*
X87501017Y-42351855D01*
X87504532Y-42159333D01*
X87510421Y-41831680D01*
X87516736Y-41575233D01*
X87524719Y-41376535D01*
X87535609Y-41222128D01*
X87550648Y-41098557D01*
X87571076Y-40992365D01*
X87598133Y-40890093D01*
X87631371Y-40783500D01*
X87799503Y-40382578D01*
X88023755Y-40036622D01*
X88298386Y-39750887D01*
X88617654Y-39530626D01*
X88975818Y-39381094D01*
X89225667Y-39324487D01*
X89432974Y-39301788D01*
X89692884Y-39287938D01*
X89982361Y-39282710D01*
X90278368Y-39285874D01*
X90557871Y-39297204D01*
X90797835Y-39316469D01*
X90967428Y-39341751D01*
X91316469Y-39444615D01*
X91600156Y-39594667D01*
X91824317Y-39798059D01*
X91994780Y-40060938D01*
X92117372Y-40389454D01*
X92168115Y-40608701D01*
X92188450Y-40745011D01*
X92211456Y-40949557D01*
X92235662Y-41206006D01*
X92259600Y-41498031D01*
X92281801Y-41809299D01*
X92294730Y-42016350D01*
X92320441Y-42415460D01*
X92346306Y-42740645D01*
X92372042Y-42989106D01*
X92397366Y-43158047D01*
X92418072Y-43236360D01*
X92507610Y-43383702D01*
X92637879Y-43477805D01*
X92822304Y-43525577D01*
X92998644Y-43535166D01*
X93161768Y-43530526D01*
X93268263Y-43511776D01*
X93345890Y-43471672D01*
X93392154Y-43432476D01*
X93451868Y-43366900D01*
X93499091Y-43287845D01*
X93536097Y-43183786D01*
X93565158Y-43043196D01*
X93588549Y-42854550D01*
X93608542Y-42606324D01*
X93627413Y-42286990D01*
X93630774Y-42222833D01*
X93647704Y-41895279D01*
X93666781Y-41526086D01*
X93686144Y-41151278D01*
X93703931Y-40806878D01*
X93711695Y-40656500D01*
X93732262Y-40316711D01*
X93757086Y-40048240D01*
X93789698Y-39837738D01*
X93833623Y-39671859D01*
X93892389Y-39537257D01*
X93969525Y-39420583D01*
X94067769Y-39309304D01*
X94259609Y-39136427D01*
X94497418Y-38957831D01*
X94747644Y-38796867D01*
X94975809Y-38677299D01*
X95214124Y-38606024D01*
X95510690Y-38571689D01*
X95848155Y-38573113D01*
X96209171Y-38609119D01*
X96576388Y-38678526D01*
X96932456Y-38780154D01*
X97036167Y-38817376D01*
X97249650Y-38929741D01*
X97469590Y-39098869D01*
X97672345Y-39302384D01*
X97834271Y-39517912D01*
X97896481Y-39631564D01*
X97973110Y-39829337D01*
X98037375Y-40069326D01*
X98089910Y-40357746D01*
X98131350Y-40700812D01*
X98162330Y-41104739D01*
X98183484Y-41575741D01*
X98195448Y-42120033D01*
X98198794Y-42592067D01*
X98200333Y-43426968D01*
X98422583Y-43489086D01*
X98547693Y-43523185D01*
X98731632Y-43572217D01*
X98951224Y-43630052D01*
X99183296Y-43690559D01*
X99222003Y-43700587D01*
X99740455Y-43845928D01*
X100188051Y-43997765D01*
X100578596Y-44163461D01*
X100925897Y-44350377D01*
X101243759Y-44565874D01*
X101545989Y-44817313D01*
X101822581Y-45087207D01*
X102162110Y-45481654D01*
X102435220Y-45888225D01*
X102636122Y-46297136D01*
X102749047Y-46653130D01*
X102785725Y-46838021D01*
X102828221Y-47097613D01*
X102875242Y-47422239D01*
X102925496Y-47802230D01*
X102977693Y-48227921D01*
X103030540Y-48689644D01*
X103069907Y-49054538D01*
X103108980Y-49381635D01*
X103161328Y-49756435D01*
X103221620Y-50144047D01*
X103284524Y-50509575D01*
X103323798Y-50716347D01*
X103424974Y-51254678D01*
X103499232Y-51728904D01*
X103546790Y-52155121D01*
X103567864Y-52549425D01*
X103562674Y-52927911D01*
X103531436Y-53306674D01*
X103474367Y-53701811D01*
X103391685Y-54129418D01*
X103371201Y-54224333D01*
X103252291Y-54801710D01*
X103155097Y-55355577D01*
X103075444Y-55914500D01*
X103009156Y-56507050D01*
X102964083Y-57010510D01*
X102913998Y-57538644D01*
X102854684Y-57996523D01*
X102783670Y-58398285D01*
X102698487Y-58758072D01*
X102605312Y-59064659D01*
X102400685Y-59585918D01*
X102163714Y-60031074D01*
X101891478Y-60403415D01*
X101581057Y-60706230D01*
X101229530Y-60942806D01*
X100833977Y-61116431D01*
X100761500Y-61140124D01*
X100731958Y-61147262D01*
X100688565Y-61153946D01*
X100628217Y-61160207D01*
X100547805Y-61166078D01*
X100444225Y-61171590D01*
X100314370Y-61176778D01*
X100155134Y-61181672D01*
X99963411Y-61186305D01*
X99736094Y-61190710D01*
X99470078Y-61194918D01*
X99162255Y-61198963D01*
X98809522Y-61202877D01*
X98408770Y-61206691D01*
X97956893Y-61210439D01*
X97450787Y-61214153D01*
X96887344Y-61217864D01*
X96263458Y-61221606D01*
X95576023Y-61225411D01*
X94821933Y-61229311D01*
X93998082Y-61233338D01*
X93101364Y-61237525D01*
X92128672Y-61241904D01*
X91076901Y-61246508D01*
X90178167Y-61250367D01*
X88831976Y-61255882D01*
X87490887Y-61260934D01*
X86158189Y-61265523D01*
X84837167Y-61269650D01*
X83531111Y-61273314D01*
X82243306Y-61276517D01*
X80977041Y-61279257D01*
X79735602Y-61281536D01*
X78522278Y-61283353D01*
X77340356Y-61284709D01*
X76193123Y-61285604D01*
X75083867Y-61286038D01*
X74015875Y-61286011D01*
X72992434Y-61285525D01*
X72016833Y-61284578D01*
X71092358Y-61283171D01*
X70222296Y-61281305D01*
X69409937Y-61278979D01*
X68658565Y-61276194D01*
X67971470Y-61272950D01*
X67351939Y-61269247D01*
X66803259Y-61265086D01*
X66328717Y-61260466D01*
X65931601Y-61255388D01*
X65615199Y-61249853D01*
X65561333Y-61248678D01*
X64998579Y-61233901D01*
X64511888Y-61216221D01*
X64092675Y-61194492D01*
X63732354Y-61167569D01*
X63422341Y-61134303D01*
X63154049Y-61093550D01*
X62918894Y-61044161D01*
X62708290Y-60984992D01*
X62513652Y-60914894D01*
X62326394Y-60832722D01*
X62280500Y-60810538D01*
X61822295Y-60549674D01*
X61422240Y-60247986D01*
X61087735Y-59912181D01*
X60826185Y-59548966D01*
X60763054Y-59435661D01*
X60658210Y-59222693D01*
X60566157Y-59007400D01*
X60484230Y-58779132D01*
X60409759Y-58527242D01*
X60340078Y-58241082D01*
X60272519Y-57910004D01*
X60204413Y-57523360D01*
X60133095Y-57070501D01*
X60079863Y-56708624D01*
X60027696Y-56363855D01*
X59962874Y-55963021D01*
X59890002Y-55532946D01*
X59813678Y-55100455D01*
X59738506Y-54692373D01*
X59696277Y-54472479D01*
X59593908Y-53923916D01*
X59516241Y-53442884D01*
X59462966Y-53016025D01*
X59433778Y-52629981D01*
X59428368Y-52271394D01*
X59446430Y-51926905D01*
X59487656Y-51583157D01*
X59551740Y-51226791D01*
X59615069Y-50941289D01*
X59688715Y-50621968D01*
X59747928Y-50343367D01*
X59796655Y-50081906D01*
X59838840Y-49814002D01*
X59878429Y-49516075D01*
X59919369Y-49164543D01*
X59932799Y-49042396D01*
X60008579Y-48413188D01*
X60091947Y-47857466D01*
X60185643Y-47364187D01*
X60292405Y-46922311D01*
X60414972Y-46520794D01*
X60556082Y-46148596D01*
X60718475Y-45794673D01*
X60757286Y-45718249D01*
X61035487Y-45261706D01*
X61367240Y-44867717D01*
X61755126Y-44534323D01*
X62201730Y-44259562D01*
X62709635Y-44041476D01*
X63136958Y-43912752D01*
X63380710Y-43855719D01*
X63642680Y-43804751D01*
X63934474Y-43758290D01*
X64267699Y-43714780D01*
X64653960Y-43672663D01*
X65104864Y-43630383D01*
X65476667Y-43598916D01*
X65920168Y-43561904D01*
X66286814Y-43529284D01*
X66584234Y-43499955D01*
X66820062Y-43472820D01*
X67001928Y-43446779D01*
X67137466Y-43420733D01*
X67234305Y-43393584D01*
X67300080Y-43364233D01*
X67342420Y-43331580D01*
X67343862Y-43330053D01*
X67404449Y-43234543D01*
X67423789Y-43156767D01*
X67412077Y-43076963D01*
X67378016Y-42920981D01*
X67322930Y-42693934D01*
X67248141Y-42400934D01*
X67154974Y-42047093D01*
X67044750Y-41637525D01*
X66918795Y-41177341D01*
X66807957Y-40777496D01*
X66731224Y-40498483D01*
X66662831Y-40242873D01*
X66605970Y-40023171D01*
X66563836Y-39851880D01*
X66539620Y-39741506D01*
X66535000Y-39708580D01*
X66506876Y-39634112D01*
X66460917Y-39619981D01*
X66411895Y-39626973D01*
X66442224Y-39656363D01*
X66450333Y-39661666D01*
X66467738Y-39673516D01*
X66475787Y-39683268D01*
X66468015Y-39690860D01*
X66437955Y-39696229D01*
X66379141Y-39699312D01*
X66285106Y-39700048D01*
X66149385Y-39698373D01*
X65965510Y-39694225D01*
X65727016Y-39687541D01*
X65427436Y-39678259D01*
X65060304Y-39666316D01*
X64619154Y-39651650D01*
X64295281Y-39640816D01*
X63613514Y-39617474D01*
X63010772Y-39595527D01*
X62481435Y-39574481D01*
X62019885Y-39553842D01*
X61620500Y-39533116D01*
X61277660Y-39511809D01*
X60985746Y-39489426D01*
X60739138Y-39465475D01*
X60532215Y-39439460D01*
X60359358Y-39410887D01*
X60214947Y-39379264D01*
X60093361Y-39344096D01*
X59988981Y-39304888D01*
X59896187Y-39261147D01*
X59880218Y-39252720D01*
X59678176Y-39118590D01*
X59463807Y-38933548D01*
X59259801Y-38720934D01*
X59088849Y-38504084D01*
X58986084Y-38333063D01*
X58864016Y-38018224D01*
X58786519Y-37677537D01*
X58755088Y-37332603D01*
X58771223Y-37005018D01*
X58785104Y-36943561D01*
X59571167Y-36943561D01*
X59573404Y-37318363D01*
X59591776Y-37611319D01*
X59648936Y-37850085D01*
X59753829Y-38059707D01*
X59909154Y-38258340D01*
X60115204Y-38452162D01*
X60327766Y-38576851D01*
X60550793Y-38642782D01*
X60702954Y-38664507D01*
X60931873Y-38686427D01*
X61238612Y-38708596D01*
X61624235Y-38731069D01*
X62089807Y-38753900D01*
X62636390Y-38777144D01*
X63265048Y-38800857D01*
X63976845Y-38825091D01*
X64312500Y-38835804D01*
X64849989Y-38852829D01*
X65309299Y-38867925D01*
X65696886Y-38881528D01*
X66019204Y-38894072D01*
X66282708Y-38905994D01*
X66493854Y-38917730D01*
X66659096Y-38929716D01*
X66784889Y-38942386D01*
X66877689Y-38956178D01*
X66943950Y-38971526D01*
X66990127Y-38988867D01*
X67022675Y-39008637D01*
X67035969Y-39019670D01*
X67089497Y-39088472D01*
X67150299Y-39207463D01*
X67220364Y-39382315D01*
X67301679Y-39618703D01*
X67396231Y-39922300D01*
X67506006Y-40298780D01*
X67594481Y-40614166D01*
X67743231Y-41153534D01*
X67869577Y-41617479D01*
X67974900Y-42011835D01*
X68060576Y-42342438D01*
X68127985Y-42615122D01*
X68178503Y-42835722D01*
X68213509Y-43010073D01*
X68234380Y-43144011D01*
X68242496Y-43243370D01*
X68239234Y-43313985D01*
X68236115Y-43331007D01*
X68158915Y-43541909D01*
X68030774Y-43753970D01*
X67870517Y-43943132D01*
X67696968Y-44085339D01*
X67609266Y-44132093D01*
X67515872Y-44164752D01*
X67390813Y-44195765D01*
X67227188Y-44225981D01*
X67018093Y-44256245D01*
X66756628Y-44287407D01*
X66435888Y-44320313D01*
X66048972Y-44355811D01*
X65588978Y-44394748D01*
X65242682Y-44422689D01*
X64650467Y-44476370D01*
X64134397Y-44538505D01*
X63686157Y-44611655D01*
X63297432Y-44698380D01*
X62959907Y-44801242D01*
X62665266Y-44922801D01*
X62405192Y-45065619D01*
X62171372Y-45232257D01*
X61955489Y-45425275D01*
X61941171Y-45439504D01*
X61718222Y-45692945D01*
X61520528Y-45984855D01*
X61346142Y-46321290D01*
X61193113Y-46708310D01*
X61059495Y-47151970D01*
X60943337Y-47658330D01*
X60842691Y-48233446D01*
X60755609Y-48883377D01*
X60715323Y-49250166D01*
X60683338Y-49550897D01*
X60653333Y-49801208D01*
X60621448Y-50023491D01*
X60583823Y-50240138D01*
X60536600Y-50473540D01*
X60475917Y-50746090D01*
X60405197Y-51049333D01*
X60349354Y-51289897D01*
X60308913Y-51481009D01*
X60281457Y-51645215D01*
X60264566Y-51805059D01*
X60255821Y-51983087D01*
X60252804Y-52201842D01*
X60253038Y-52467500D01*
X60254231Y-52691846D01*
X60257326Y-52878511D01*
X60264161Y-53042433D01*
X60276574Y-53198552D01*
X60296403Y-53361805D01*
X60325485Y-53547130D01*
X60365659Y-53769467D01*
X60418761Y-54043754D01*
X60486631Y-54384929D01*
X60492608Y-54414833D01*
X60562399Y-54773176D01*
X60633001Y-55152252D01*
X60700566Y-55530210D01*
X60761251Y-55885198D01*
X60811209Y-56195366D01*
X60839032Y-56383333D01*
X60915315Y-56910531D01*
X60986827Y-57362356D01*
X61055711Y-57747820D01*
X61124109Y-58075934D01*
X61194163Y-58355709D01*
X61268018Y-58596157D01*
X61347815Y-58806289D01*
X61435696Y-58995115D01*
X61479725Y-59077841D01*
X61668632Y-59349536D01*
X61922318Y-59612565D01*
X62221119Y-59852155D01*
X62545365Y-60053536D01*
X62875392Y-60201937D01*
X63045668Y-60253994D01*
X63264963Y-60299947D01*
X63531780Y-60339246D01*
X63853310Y-60372496D01*
X64236745Y-60400303D01*
X64689276Y-60423272D01*
X65218094Y-60442011D01*
X65307333Y-60444575D01*
X65535271Y-60449596D01*
X65844204Y-60454251D01*
X66230459Y-60458542D01*
X66690367Y-60462467D01*
X67220254Y-60466028D01*
X67816450Y-60469225D01*
X68475284Y-60472056D01*
X69193084Y-60474523D01*
X69966178Y-60476625D01*
X70790895Y-60478362D01*
X71663564Y-60479734D01*
X72580513Y-60480742D01*
X73538072Y-60481385D01*
X74532567Y-60481664D01*
X75560329Y-60481577D01*
X76617686Y-60481126D01*
X77700965Y-60480310D01*
X78806497Y-60479130D01*
X79930609Y-60477585D01*
X81069629Y-60475675D01*
X82219888Y-60473400D01*
X83377712Y-60470761D01*
X84539432Y-60467757D01*
X85701374Y-60464389D01*
X86859869Y-60460656D01*
X88011244Y-60456558D01*
X89151828Y-60452096D01*
X90277950Y-60447269D01*
X90876667Y-60444521D01*
X100507500Y-60399249D01*
X100752272Y-60289901D01*
X101027760Y-60121740D01*
X101279205Y-59876868D01*
X101504374Y-59560387D01*
X101701033Y-59177397D01*
X101866945Y-58732997D01*
X101999877Y-58232289D01*
X102097594Y-57680372D01*
X102157861Y-57082347D01*
X102157895Y-57081833D01*
X102199421Y-56538566D01*
X102251583Y-56027738D01*
X102317754Y-55526040D01*
X102401305Y-55010159D01*
X102505608Y-54456785D01*
X102611030Y-53949166D01*
X102670572Y-53669543D01*
X102714153Y-53452953D01*
X102743805Y-53279694D01*
X102761557Y-53130064D01*
X102769439Y-52984364D01*
X102769482Y-52822892D01*
X102763717Y-52625946D01*
X102759357Y-52509773D01*
X102740435Y-52172963D01*
X102708231Y-51850350D01*
X102658853Y-51510465D01*
X102588413Y-51121840D01*
X102586649Y-51112773D01*
X102519063Y-50764719D01*
X102465073Y-50481940D01*
X102421962Y-50246631D01*
X102387014Y-50040986D01*
X102357511Y-49847201D01*
X102330736Y-49647469D01*
X102303973Y-49423987D01*
X102274504Y-49158948D01*
X102241051Y-48848000D01*
X102185788Y-48345546D01*
X102135348Y-47919567D01*
X102088376Y-47562095D01*
X102043517Y-47265164D01*
X101999415Y-47020807D01*
X101954716Y-46821058D01*
X101908064Y-46657950D01*
X101858105Y-46523516D01*
X101837948Y-46478243D01*
X101623492Y-46103705D01*
X101340528Y-45739941D01*
X101005005Y-45403700D01*
X100632869Y-45111735D01*
X100395141Y-44962783D01*
X100141487Y-44838875D01*
X99811595Y-44712131D01*
X99402845Y-44581651D01*
X98912616Y-44446532D01*
X98835333Y-44426685D01*
X98497474Y-44340293D01*
X98231596Y-44270677D01*
X98027576Y-44213945D01*
X97875290Y-44166202D01*
X97764613Y-44123558D01*
X97685422Y-44082119D01*
X97627594Y-44037992D01*
X97581003Y-43987284D01*
X97536301Y-43927188D01*
X97407621Y-43746833D01*
X97383069Y-42244000D01*
X97374574Y-41780717D01*
X97364949Y-41393072D01*
X97353276Y-41072034D01*
X97338638Y-40808575D01*
X97320117Y-40593664D01*
X97296794Y-40418272D01*
X97267753Y-40273370D01*
X97232075Y-40149928D01*
X97188842Y-40038916D01*
X97150716Y-39958000D01*
X97060315Y-39803189D01*
X96958717Y-39697328D01*
X96823504Y-39611978D01*
X96595729Y-39516923D01*
X96314568Y-39440940D01*
X96010273Y-39389947D01*
X95713096Y-39369864D01*
X95597317Y-39372087D01*
X95439503Y-39383277D01*
X95322075Y-39405072D01*
X95215261Y-39448286D01*
X95089293Y-39523728D01*
X94983041Y-39595169D01*
X94835215Y-39702586D01*
X94709069Y-39805833D01*
X94626127Y-39886927D01*
X94612688Y-39904550D01*
X94594661Y-39938421D01*
X94578648Y-39986131D01*
X94564084Y-40054835D01*
X94550405Y-40151689D01*
X94537046Y-40283848D01*
X94523443Y-40458467D01*
X94509032Y-40682703D01*
X94493247Y-40963711D01*
X94475524Y-41308647D01*
X94455299Y-41724666D01*
X94434791Y-42159333D01*
X94419141Y-42445994D01*
X94400069Y-42719865D01*
X94379073Y-42963946D01*
X94357652Y-43161240D01*
X94337302Y-43294749D01*
X94333015Y-43314303D01*
X94224675Y-43615291D01*
X94059870Y-43878655D01*
X93850050Y-44091261D01*
X93606663Y-44239974D01*
X93488970Y-44282627D01*
X93357664Y-44307761D01*
X93178559Y-44325979D01*
X92988460Y-44333645D01*
X92972167Y-44333693D01*
X92612198Y-44304759D01*
X92309876Y-44216324D01*
X92059665Y-44065252D01*
X91856033Y-43848404D01*
X91722881Y-43625331D01*
X91679252Y-43530248D01*
X91642696Y-43431822D01*
X91611913Y-43320220D01*
X91585602Y-43185611D01*
X91562462Y-43018162D01*
X91541194Y-42808041D01*
X91520495Y-42545416D01*
X91499066Y-42220454D01*
X91475607Y-41823324D01*
X91468935Y-41705647D01*
X91442782Y-41307000D01*
X91411512Y-40984259D01*
X91371611Y-40728679D01*
X91319565Y-40531515D01*
X91251861Y-40384022D01*
X91164984Y-40277454D01*
X91055421Y-40203066D01*
X90919658Y-40152113D01*
X90836537Y-40131760D01*
X90681369Y-40110148D01*
X90465359Y-40095474D01*
X90211940Y-40087744D01*
X89944546Y-40086968D01*
X89686611Y-40093154D01*
X89461567Y-40106308D01*
X89292849Y-40126439D01*
X89268264Y-40131231D01*
X89008706Y-40228761D01*
X88775048Y-40398834D01*
X88578133Y-40630675D01*
X88428805Y-40913511D01*
X88398744Y-40995166D01*
X88377559Y-41072807D01*
X88359527Y-41175536D01*
X88344007Y-41312581D01*
X88330360Y-41493165D01*
X88317946Y-41726515D01*
X88306125Y-42021857D01*
X88294256Y-42388414D01*
X88288637Y-42582295D01*
X88249866Y-43957758D01*
X87853016Y-44360666D01*
X72346842Y-44360666D01*
X72152739Y-44212458D01*
X71958636Y-44064249D01*
X71317639Y-42128087D01*
X71064940Y-41367437D01*
X70835443Y-40683192D01*
X70627159Y-40070926D01*
X70438102Y-39526209D01*
X70266285Y-39044615D01*
X70109721Y-38621715D01*
X69966421Y-38253082D01*
X69834401Y-37934289D01*
X69711671Y-37660907D01*
X69596245Y-37428509D01*
X69486137Y-37232667D01*
X69379358Y-37068953D01*
X69273922Y-36932940D01*
X69167842Y-36820200D01*
X69059130Y-36726305D01*
X68945799Y-36646828D01*
X68826723Y-36577799D01*
X68665963Y-36501061D01*
X68493598Y-36439031D01*
X68297092Y-36389523D01*
X68063907Y-36350354D01*
X67781507Y-36319340D01*
X67437355Y-36294296D01*
X67097679Y-36276564D01*
X66725371Y-36261440D01*
X66305636Y-36247789D01*
X65848859Y-36235701D01*
X65365423Y-36225263D01*
X64865713Y-36216565D01*
X64360112Y-36209695D01*
X63859004Y-36204742D01*
X63372774Y-36201795D01*
X62911805Y-36200941D01*
X62486480Y-36202271D01*
X62107185Y-36205873D01*
X61784303Y-36211835D01*
X61528218Y-36220245D01*
X61391500Y-36227833D01*
X61032222Y-36257044D01*
X60743283Y-36290724D01*
X60510355Y-36333435D01*
X60319110Y-36389736D01*
X60155219Y-36464191D01*
X60004355Y-36561359D01*
X59852190Y-36685803D01*
X59797462Y-36735275D01*
X59571167Y-36943561D01*
X58785104Y-36943561D01*
X58836420Y-36716383D01*
X58868330Y-36634776D01*
X58974721Y-36458886D01*
X59138766Y-36265283D01*
X59341412Y-36072096D01*
X59563610Y-35897454D01*
X59786306Y-35759488D01*
X59790342Y-35757380D01*
X59964289Y-35674502D01*
X60143089Y-35607361D01*
X60339878Y-35553513D01*
X60567790Y-35510518D01*
X60839963Y-35475933D01*
X61169532Y-35447318D01*
X61569632Y-35422229D01*
X61603167Y-35420404D01*
X61846685Y-35408879D01*
X62102104Y-35400263D01*
X62378508Y-35394559D01*
X62684978Y-35391770D01*
X63030599Y-35391901D01*
X63030599Y-35391901D01*
G37*
X63030599Y-35391901D02*
X63424452Y-35394956D01*
X63875621Y-35400936D01*
X64393188Y-35409848D01*
X64986236Y-35421693D01*
X64989833Y-35421769D01*
X65615042Y-35435324D01*
X66162288Y-35448439D01*
X66638267Y-35461804D01*
X67049675Y-35476111D01*
X67403209Y-35492050D01*
X67705564Y-35510314D01*
X67963436Y-35531593D01*
X68183522Y-35556577D01*
X68372518Y-35585959D01*
X68537119Y-35620430D01*
X68684023Y-35660679D01*
X68819924Y-35707400D01*
X68951519Y-35761281D01*
X69085505Y-35823016D01*
X69141707Y-35850278D01*
X69393523Y-35992574D01*
X69623990Y-36165409D01*
X69837926Y-36375918D01*
X70040154Y-36631234D01*
X70235492Y-36938491D01*
X70428762Y-37304821D01*
X70624784Y-37737360D01*
X70828378Y-38243239D01*
X70916207Y-38476333D01*
X70977107Y-38644713D01*
X71061119Y-38883033D01*
X71164673Y-39180882D01*
X71284201Y-39527847D01*
X71416132Y-39913517D01*
X71556897Y-40327478D01*
X71702926Y-40759320D01*
X71850650Y-41198630D01*
X71899480Y-41344416D01*
X72639587Y-43556333D01*
X87442479Y-43556333D01*
X87464919Y-43376416D01*
X87471925Y-43283820D01*
X87479502Y-43120815D01*
X87487185Y-42901651D01*
X87494512Y-42640581D01*
X87501017Y-42351855D01*
X87504532Y-42159333D01*
X87510421Y-41831680D01*
X87516736Y-41575233D01*
X87524719Y-41376535D01*
X87535609Y-41222128D01*
X87550648Y-41098557D01*
X87571076Y-40992365D01*
X87598133Y-40890093D01*
X87631371Y-40783500D01*
X87799503Y-40382578D01*
X88023755Y-40036622D01*
X88298386Y-39750887D01*
X88617654Y-39530626D01*
X88975818Y-39381094D01*
X89225667Y-39324487D01*
X89432974Y-39301788D01*
X89692884Y-39287938D01*
X89982361Y-39282710D01*
X90278368Y-39285874D01*
X90557871Y-39297204D01*
X90797835Y-39316469D01*
X90967428Y-39341751D01*
X91316469Y-39444615D01*
X91600156Y-39594667D01*
X91824317Y-39798059D01*
X91994780Y-40060938D01*
X92117372Y-40389454D01*
X92168115Y-40608701D01*
X92188450Y-40745011D01*
X92211456Y-40949557D01*
X92235662Y-41206006D01*
X92259600Y-41498031D01*
X92281801Y-41809299D01*
X92294730Y-42016350D01*
X92320441Y-42415460D01*
X92346306Y-42740645D01*
X92372042Y-42989106D01*
X92397366Y-43158047D01*
X92418072Y-43236360D01*
X92507610Y-43383702D01*
X92637879Y-43477805D01*
X92822304Y-43525577D01*
X92998644Y-43535166D01*
X93161768Y-43530526D01*
X93268263Y-43511776D01*
X93345890Y-43471672D01*
X93392154Y-43432476D01*
X93451868Y-43366900D01*
X93499091Y-43287845D01*
X93536097Y-43183786D01*
X93565158Y-43043196D01*
X93588549Y-42854550D01*
X93608542Y-42606324D01*
X93627413Y-42286990D01*
X93630774Y-42222833D01*
X93647704Y-41895279D01*
X93666781Y-41526086D01*
X93686144Y-41151278D01*
X93703931Y-40806878D01*
X93711695Y-40656500D01*
X93732262Y-40316711D01*
X93757086Y-40048240D01*
X93789698Y-39837738D01*
X93833623Y-39671859D01*
X93892389Y-39537257D01*
X93969525Y-39420583D01*
X94067769Y-39309304D01*
X94259609Y-39136427D01*
X94497418Y-38957831D01*
X94747644Y-38796867D01*
X94975809Y-38677299D01*
X95214124Y-38606024D01*
X95510690Y-38571689D01*
X95848155Y-38573113D01*
X96209171Y-38609119D01*
X96576388Y-38678526D01*
X96932456Y-38780154D01*
X97036167Y-38817376D01*
X97249650Y-38929741D01*
X97469590Y-39098869D01*
X97672345Y-39302384D01*
X97834271Y-39517912D01*
X97896481Y-39631564D01*
X97973110Y-39829337D01*
X98037375Y-40069326D01*
X98089910Y-40357746D01*
X98131350Y-40700812D01*
X98162330Y-41104739D01*
X98183484Y-41575741D01*
X98195448Y-42120033D01*
X98198794Y-42592067D01*
X98200333Y-43426968D01*
X98422583Y-43489086D01*
X98547693Y-43523185D01*
X98731632Y-43572217D01*
X98951224Y-43630052D01*
X99183296Y-43690559D01*
X99222003Y-43700587D01*
X99740455Y-43845928D01*
X100188051Y-43997765D01*
X100578596Y-44163461D01*
X100925897Y-44350377D01*
X101243759Y-44565874D01*
X101545989Y-44817313D01*
X101822581Y-45087207D01*
X102162110Y-45481654D01*
X102435220Y-45888225D01*
X102636122Y-46297136D01*
X102749047Y-46653130D01*
X102785725Y-46838021D01*
X102828221Y-47097613D01*
X102875242Y-47422239D01*
X102925496Y-47802230D01*
X102977693Y-48227921D01*
X103030540Y-48689644D01*
X103069907Y-49054538D01*
X103108980Y-49381635D01*
X103161328Y-49756435D01*
X103221620Y-50144047D01*
X103284524Y-50509575D01*
X103323798Y-50716347D01*
X103424974Y-51254678D01*
X103499232Y-51728904D01*
X103546790Y-52155121D01*
X103567864Y-52549425D01*
X103562674Y-52927911D01*
X103531436Y-53306674D01*
X103474367Y-53701811D01*
X103391685Y-54129418D01*
X103371201Y-54224333D01*
X103252291Y-54801710D01*
X103155097Y-55355577D01*
X103075444Y-55914500D01*
X103009156Y-56507050D01*
X102964083Y-57010510D01*
X102913998Y-57538644D01*
X102854684Y-57996523D01*
X102783670Y-58398285D01*
X102698487Y-58758072D01*
X102605312Y-59064659D01*
X102400685Y-59585918D01*
X102163714Y-60031074D01*
X101891478Y-60403415D01*
X101581057Y-60706230D01*
X101229530Y-60942806D01*
X100833977Y-61116431D01*
X100761500Y-61140124D01*
X100731958Y-61147262D01*
X100688565Y-61153946D01*
X100628217Y-61160207D01*
X100547805Y-61166078D01*
X100444225Y-61171590D01*
X100314370Y-61176778D01*
X100155134Y-61181672D01*
X99963411Y-61186305D01*
X99736094Y-61190710D01*
X99470078Y-61194918D01*
X99162255Y-61198963D01*
X98809522Y-61202877D01*
X98408770Y-61206691D01*
X97956893Y-61210439D01*
X97450787Y-61214153D01*
X96887344Y-61217864D01*
X96263458Y-61221606D01*
X95576023Y-61225411D01*
X94821933Y-61229311D01*
X93998082Y-61233338D01*
X93101364Y-61237525D01*
X92128672Y-61241904D01*
X91076901Y-61246508D01*
X90178167Y-61250367D01*
X88831976Y-61255882D01*
X87490887Y-61260934D01*
X86158189Y-61265523D01*
X84837167Y-61269650D01*
X83531111Y-61273314D01*
X82243306Y-61276517D01*
X80977041Y-61279257D01*
X79735602Y-61281536D01*
X78522278Y-61283353D01*
X77340356Y-61284709D01*
X76193123Y-61285604D01*
X75083867Y-61286038D01*
X74015875Y-61286011D01*
X72992434Y-61285525D01*
X72016833Y-61284578D01*
X71092358Y-61283171D01*
X70222296Y-61281305D01*
X69409937Y-61278979D01*
X68658565Y-61276194D01*
X67971470Y-61272950D01*
X67351939Y-61269247D01*
X66803259Y-61265086D01*
X66328717Y-61260466D01*
X65931601Y-61255388D01*
X65615199Y-61249853D01*
X65561333Y-61248678D01*
X64998579Y-61233901D01*
X64511888Y-61216221D01*
X64092675Y-61194492D01*
X63732354Y-61167569D01*
X63422341Y-61134303D01*
X63154049Y-61093550D01*
X62918894Y-61044161D01*
X62708290Y-60984992D01*
X62513652Y-60914894D01*
X62326394Y-60832722D01*
X62280500Y-60810538D01*
X61822295Y-60549674D01*
X61422240Y-60247986D01*
X61087735Y-59912181D01*
X60826185Y-59548966D01*
X60763054Y-59435661D01*
X60658210Y-59222693D01*
X60566157Y-59007400D01*
X60484230Y-58779132D01*
X60409759Y-58527242D01*
X60340078Y-58241082D01*
X60272519Y-57910004D01*
X60204413Y-57523360D01*
X60133095Y-57070501D01*
X60079863Y-56708624D01*
X60027696Y-56363855D01*
X59962874Y-55963021D01*
X59890002Y-55532946D01*
X59813678Y-55100455D01*
X59738506Y-54692373D01*
X59696277Y-54472479D01*
X59593908Y-53923916D01*
X59516241Y-53442884D01*
X59462966Y-53016025D01*
X59433778Y-52629981D01*
X59428368Y-52271394D01*
X59446430Y-51926905D01*
X59487656Y-51583157D01*
X59551740Y-51226791D01*
X59615069Y-50941289D01*
X59688715Y-50621968D01*
X59747928Y-50343367D01*
X59796655Y-50081906D01*
X59838840Y-49814002D01*
X59878429Y-49516075D01*
X59919369Y-49164543D01*
X59932799Y-49042396D01*
X60008579Y-48413188D01*
X60091947Y-47857466D01*
X60185643Y-47364187D01*
X60292405Y-46922311D01*
X60414972Y-46520794D01*
X60556082Y-46148596D01*
X60718475Y-45794673D01*
X60757286Y-45718249D01*
X61035487Y-45261706D01*
X61367240Y-44867717D01*
X61755126Y-44534323D01*
X62201730Y-44259562D01*
X62709635Y-44041476D01*
X63136958Y-43912752D01*
X63380710Y-43855719D01*
X63642680Y-43804751D01*
X63934474Y-43758290D01*
X64267699Y-43714780D01*
X64653960Y-43672663D01*
X65104864Y-43630383D01*
X65476667Y-43598916D01*
X65920168Y-43561904D01*
X66286814Y-43529284D01*
X66584234Y-43499955D01*
X66820062Y-43472820D01*
X67001928Y-43446779D01*
X67137466Y-43420733D01*
X67234305Y-43393584D01*
X67300080Y-43364233D01*
X67342420Y-43331580D01*
X67343862Y-43330053D01*
X67404449Y-43234543D01*
X67423789Y-43156767D01*
X67412077Y-43076963D01*
X67378016Y-42920981D01*
X67322930Y-42693934D01*
X67248141Y-42400934D01*
X67154974Y-42047093D01*
X67044750Y-41637525D01*
X66918795Y-41177341D01*
X66807957Y-40777496D01*
X66731224Y-40498483D01*
X66662831Y-40242873D01*
X66605970Y-40023171D01*
X66563836Y-39851880D01*
X66539620Y-39741506D01*
X66535000Y-39708580D01*
X66506876Y-39634112D01*
X66460917Y-39619981D01*
X66411895Y-39626973D01*
X66442224Y-39656363D01*
X66450333Y-39661666D01*
X66467738Y-39673516D01*
X66475787Y-39683268D01*
X66468015Y-39690860D01*
X66437955Y-39696229D01*
X66379141Y-39699312D01*
X66285106Y-39700048D01*
X66149385Y-39698373D01*
X65965510Y-39694225D01*
X65727016Y-39687541D01*
X65427436Y-39678259D01*
X65060304Y-39666316D01*
X64619154Y-39651650D01*
X64295281Y-39640816D01*
X63613514Y-39617474D01*
X63010772Y-39595527D01*
X62481435Y-39574481D01*
X62019885Y-39553842D01*
X61620500Y-39533116D01*
X61277660Y-39511809D01*
X60985746Y-39489426D01*
X60739138Y-39465475D01*
X60532215Y-39439460D01*
X60359358Y-39410887D01*
X60214947Y-39379264D01*
X60093361Y-39344096D01*
X59988981Y-39304888D01*
X59896187Y-39261147D01*
X59880218Y-39252720D01*
X59678176Y-39118590D01*
X59463807Y-38933548D01*
X59259801Y-38720934D01*
X59088849Y-38504084D01*
X58986084Y-38333063D01*
X58864016Y-38018224D01*
X58786519Y-37677537D01*
X58755088Y-37332603D01*
X58771223Y-37005018D01*
X58785104Y-36943561D01*
X59571167Y-36943561D01*
X59573404Y-37318363D01*
X59591776Y-37611319D01*
X59648936Y-37850085D01*
X59753829Y-38059707D01*
X59909154Y-38258340D01*
X60115204Y-38452162D01*
X60327766Y-38576851D01*
X60550793Y-38642782D01*
X60702954Y-38664507D01*
X60931873Y-38686427D01*
X61238612Y-38708596D01*
X61624235Y-38731069D01*
X62089807Y-38753900D01*
X62636390Y-38777144D01*
X63265048Y-38800857D01*
X63976845Y-38825091D01*
X64312500Y-38835804D01*
X64849989Y-38852829D01*
X65309299Y-38867925D01*
X65696886Y-38881528D01*
X66019204Y-38894072D01*
X66282708Y-38905994D01*
X66493854Y-38917730D01*
X66659096Y-38929716D01*
X66784889Y-38942386D01*
X66877689Y-38956178D01*
X66943950Y-38971526D01*
X66990127Y-38988867D01*
X67022675Y-39008637D01*
X67035969Y-39019670D01*
X67089497Y-39088472D01*
X67150299Y-39207463D01*
X67220364Y-39382315D01*
X67301679Y-39618703D01*
X67396231Y-39922300D01*
X67506006Y-40298780D01*
X67594481Y-40614166D01*
X67743231Y-41153534D01*
X67869577Y-41617479D01*
X67974900Y-42011835D01*
X68060576Y-42342438D01*
X68127985Y-42615122D01*
X68178503Y-42835722D01*
X68213509Y-43010073D01*
X68234380Y-43144011D01*
X68242496Y-43243370D01*
X68239234Y-43313985D01*
X68236115Y-43331007D01*
X68158915Y-43541909D01*
X68030774Y-43753970D01*
X67870517Y-43943132D01*
X67696968Y-44085339D01*
X67609266Y-44132093D01*
X67515872Y-44164752D01*
X67390813Y-44195765D01*
X67227188Y-44225981D01*
X67018093Y-44256245D01*
X66756628Y-44287407D01*
X66435888Y-44320313D01*
X66048972Y-44355811D01*
X65588978Y-44394748D01*
X65242682Y-44422689D01*
X64650467Y-44476370D01*
X64134397Y-44538505D01*
X63686157Y-44611655D01*
X63297432Y-44698380D01*
X62959907Y-44801242D01*
X62665266Y-44922801D01*
X62405192Y-45065619D01*
X62171372Y-45232257D01*
X61955489Y-45425275D01*
X61941171Y-45439504D01*
X61718222Y-45692945D01*
X61520528Y-45984855D01*
X61346142Y-46321290D01*
X61193113Y-46708310D01*
X61059495Y-47151970D01*
X60943337Y-47658330D01*
X60842691Y-48233446D01*
X60755609Y-48883377D01*
X60715323Y-49250166D01*
X60683338Y-49550897D01*
X60653333Y-49801208D01*
X60621448Y-50023491D01*
X60583823Y-50240138D01*
X60536600Y-50473540D01*
X60475917Y-50746090D01*
X60405197Y-51049333D01*
X60349354Y-51289897D01*
X60308913Y-51481009D01*
X60281457Y-51645215D01*
X60264566Y-51805059D01*
X60255821Y-51983087D01*
X60252804Y-52201842D01*
X60253038Y-52467500D01*
X60254231Y-52691846D01*
X60257326Y-52878511D01*
X60264161Y-53042433D01*
X60276574Y-53198552D01*
X60296403Y-53361805D01*
X60325485Y-53547130D01*
X60365659Y-53769467D01*
X60418761Y-54043754D01*
X60486631Y-54384929D01*
X60492608Y-54414833D01*
X60562399Y-54773176D01*
X60633001Y-55152252D01*
X60700566Y-55530210D01*
X60761251Y-55885198D01*
X60811209Y-56195366D01*
X60839032Y-56383333D01*
X60915315Y-56910531D01*
X60986827Y-57362356D01*
X61055711Y-57747820D01*
X61124109Y-58075934D01*
X61194163Y-58355709D01*
X61268018Y-58596157D01*
X61347815Y-58806289D01*
X61435696Y-58995115D01*
X61479725Y-59077841D01*
X61668632Y-59349536D01*
X61922318Y-59612565D01*
X62221119Y-59852155D01*
X62545365Y-60053536D01*
X62875392Y-60201937D01*
X63045668Y-60253994D01*
X63264963Y-60299947D01*
X63531780Y-60339246D01*
X63853310Y-60372496D01*
X64236745Y-60400303D01*
X64689276Y-60423272D01*
X65218094Y-60442011D01*
X65307333Y-60444575D01*
X65535271Y-60449596D01*
X65844204Y-60454251D01*
X66230459Y-60458542D01*
X66690367Y-60462467D01*
X67220254Y-60466028D01*
X67816450Y-60469225D01*
X68475284Y-60472056D01*
X69193084Y-60474523D01*
X69966178Y-60476625D01*
X70790895Y-60478362D01*
X71663564Y-60479734D01*
X72580513Y-60480742D01*
X73538072Y-60481385D01*
X74532567Y-60481664D01*
X75560329Y-60481577D01*
X76617686Y-60481126D01*
X77700965Y-60480310D01*
X78806497Y-60479130D01*
X79930609Y-60477585D01*
X81069629Y-60475675D01*
X82219888Y-60473400D01*
X83377712Y-60470761D01*
X84539432Y-60467757D01*
X85701374Y-60464389D01*
X86859869Y-60460656D01*
X88011244Y-60456558D01*
X89151828Y-60452096D01*
X90277950Y-60447269D01*
X90876667Y-60444521D01*
X100507500Y-60399249D01*
X100752272Y-60289901D01*
X101027760Y-60121740D01*
X101279205Y-59876868D01*
X101504374Y-59560387D01*
X101701033Y-59177397D01*
X101866945Y-58732997D01*
X101999877Y-58232289D01*
X102097594Y-57680372D01*
X102157861Y-57082347D01*
X102157895Y-57081833D01*
X102199421Y-56538566D01*
X102251583Y-56027738D01*
X102317754Y-55526040D01*
X102401305Y-55010159D01*
X102505608Y-54456785D01*
X102611030Y-53949166D01*
X102670572Y-53669543D01*
X102714153Y-53452953D01*
X102743805Y-53279694D01*
X102761557Y-53130064D01*
X102769439Y-52984364D01*
X102769482Y-52822892D01*
X102763717Y-52625946D01*
X102759357Y-52509773D01*
X102740435Y-52172963D01*
X102708231Y-51850350D01*
X102658853Y-51510465D01*
X102588413Y-51121840D01*
X102586649Y-51112773D01*
X102519063Y-50764719D01*
X102465073Y-50481940D01*
X102421962Y-50246631D01*
X102387014Y-50040986D01*
X102357511Y-49847201D01*
X102330736Y-49647469D01*
X102303973Y-49423987D01*
X102274504Y-49158948D01*
X102241051Y-48848000D01*
X102185788Y-48345546D01*
X102135348Y-47919567D01*
X102088376Y-47562095D01*
X102043517Y-47265164D01*
X101999415Y-47020807D01*
X101954716Y-46821058D01*
X101908064Y-46657950D01*
X101858105Y-46523516D01*
X101837948Y-46478243D01*
X101623492Y-46103705D01*
X101340528Y-45739941D01*
X101005005Y-45403700D01*
X100632869Y-45111735D01*
X100395141Y-44962783D01*
X100141487Y-44838875D01*
X99811595Y-44712131D01*
X99402845Y-44581651D01*
X98912616Y-44446532D01*
X98835333Y-44426685D01*
X98497474Y-44340293D01*
X98231596Y-44270677D01*
X98027576Y-44213945D01*
X97875290Y-44166202D01*
X97764613Y-44123558D01*
X97685422Y-44082119D01*
X97627594Y-44037992D01*
X97581003Y-43987284D01*
X97536301Y-43927188D01*
X97407621Y-43746833D01*
X97383069Y-42244000D01*
X97374574Y-41780717D01*
X97364949Y-41393072D01*
X97353276Y-41072034D01*
X97338638Y-40808575D01*
X97320117Y-40593664D01*
X97296794Y-40418272D01*
X97267753Y-40273370D01*
X97232075Y-40149928D01*
X97188842Y-40038916D01*
X97150716Y-39958000D01*
X97060315Y-39803189D01*
X96958717Y-39697328D01*
X96823504Y-39611978D01*
X96595729Y-39516923D01*
X96314568Y-39440940D01*
X96010273Y-39389947D01*
X95713096Y-39369864D01*
X95597317Y-39372087D01*
X95439503Y-39383277D01*
X95322075Y-39405072D01*
X95215261Y-39448286D01*
X95089293Y-39523728D01*
X94983041Y-39595169D01*
X94835215Y-39702586D01*
X94709069Y-39805833D01*
X94626127Y-39886927D01*
X94612688Y-39904550D01*
X94594661Y-39938421D01*
X94578648Y-39986131D01*
X94564084Y-40054835D01*
X94550405Y-40151689D01*
X94537046Y-40283848D01*
X94523443Y-40458467D01*
X94509032Y-40682703D01*
X94493247Y-40963711D01*
X94475524Y-41308647D01*
X94455299Y-41724666D01*
X94434791Y-42159333D01*
X94419141Y-42445994D01*
X94400069Y-42719865D01*
X94379073Y-42963946D01*
X94357652Y-43161240D01*
X94337302Y-43294749D01*
X94333015Y-43314303D01*
X94224675Y-43615291D01*
X94059870Y-43878655D01*
X93850050Y-44091261D01*
X93606663Y-44239974D01*
X93488970Y-44282627D01*
X93357664Y-44307761D01*
X93178559Y-44325979D01*
X92988460Y-44333645D01*
X92972167Y-44333693D01*
X92612198Y-44304759D01*
X92309876Y-44216324D01*
X92059665Y-44065252D01*
X91856033Y-43848404D01*
X91722881Y-43625331D01*
X91679252Y-43530248D01*
X91642696Y-43431822D01*
X91611913Y-43320220D01*
X91585602Y-43185611D01*
X91562462Y-43018162D01*
X91541194Y-42808041D01*
X91520495Y-42545416D01*
X91499066Y-42220454D01*
X91475607Y-41823324D01*
X91468935Y-41705647D01*
X91442782Y-41307000D01*
X91411512Y-40984259D01*
X91371611Y-40728679D01*
X91319565Y-40531515D01*
X91251861Y-40384022D01*
X91164984Y-40277454D01*
X91055421Y-40203066D01*
X90919658Y-40152113D01*
X90836537Y-40131760D01*
X90681369Y-40110148D01*
X90465359Y-40095474D01*
X90211940Y-40087744D01*
X89944546Y-40086968D01*
X89686611Y-40093154D01*
X89461567Y-40106308D01*
X89292849Y-40126439D01*
X89268264Y-40131231D01*
X89008706Y-40228761D01*
X88775048Y-40398834D01*
X88578133Y-40630675D01*
X88428805Y-40913511D01*
X88398744Y-40995166D01*
X88377559Y-41072807D01*
X88359527Y-41175536D01*
X88344007Y-41312581D01*
X88330360Y-41493165D01*
X88317946Y-41726515D01*
X88306125Y-42021857D01*
X88294256Y-42388414D01*
X88288637Y-42582295D01*
X88249866Y-43957758D01*
X87853016Y-44360666D01*
X72346842Y-44360666D01*
X72152739Y-44212458D01*
X71958636Y-44064249D01*
X71317639Y-42128087D01*
X71064940Y-41367437D01*
X70835443Y-40683192D01*
X70627159Y-40070926D01*
X70438102Y-39526209D01*
X70266285Y-39044615D01*
X70109721Y-38621715D01*
X69966421Y-38253082D01*
X69834401Y-37934289D01*
X69711671Y-37660907D01*
X69596245Y-37428509D01*
X69486137Y-37232667D01*
X69379358Y-37068953D01*
X69273922Y-36932940D01*
X69167842Y-36820200D01*
X69059130Y-36726305D01*
X68945799Y-36646828D01*
X68826723Y-36577799D01*
X68665963Y-36501061D01*
X68493598Y-36439031D01*
X68297092Y-36389523D01*
X68063907Y-36350354D01*
X67781507Y-36319340D01*
X67437355Y-36294296D01*
X67097679Y-36276564D01*
X66725371Y-36261440D01*
X66305636Y-36247789D01*
X65848859Y-36235701D01*
X65365423Y-36225263D01*
X64865713Y-36216565D01*
X64360112Y-36209695D01*
X63859004Y-36204742D01*
X63372774Y-36201795D01*
X62911805Y-36200941D01*
X62486480Y-36202271D01*
X62107185Y-36205873D01*
X61784303Y-36211835D01*
X61528218Y-36220245D01*
X61391500Y-36227833D01*
X61032222Y-36257044D01*
X60743283Y-36290724D01*
X60510355Y-36333435D01*
X60319110Y-36389736D01*
X60155219Y-36464191D01*
X60004355Y-36561359D01*
X59852190Y-36685803D01*
X59797462Y-36735275D01*
X59571167Y-36943561D01*
X58785104Y-36943561D01*
X58836420Y-36716383D01*
X58868330Y-36634776D01*
X58974721Y-36458886D01*
X59138766Y-36265283D01*
X59341412Y-36072096D01*
X59563610Y-35897454D01*
X59786306Y-35759488D01*
X59790342Y-35757380D01*
X59964289Y-35674502D01*
X60143089Y-35607361D01*
X60339878Y-35553513D01*
X60567790Y-35510518D01*
X60839963Y-35475933D01*
X61169532Y-35447318D01*
X61569632Y-35422229D01*
X61603167Y-35420404D01*
X61846685Y-35408879D01*
X62102104Y-35400263D01*
X62378508Y-35394559D01*
X62684978Y-35391770D01*
X63030599Y-35391901D01*
G36*
X77582758Y-47120773D02*
X79034599Y-47121245D01*
X80556074Y-47121965D01*
X81648642Y-47122608D01*
X83083536Y-47123524D01*
X84436214Y-47124406D01*
X85709126Y-47125268D01*
X86904723Y-47126122D01*
X88025455Y-47126982D01*
X89073773Y-47127860D01*
X90052126Y-47128771D01*
X90962966Y-47129727D01*
X91808743Y-47130741D01*
X92591907Y-47131826D01*
X93314909Y-47132996D01*
X93980199Y-47134263D01*
X94590227Y-47135642D01*
X95147445Y-47137144D01*
X95654303Y-47138783D01*
X96113250Y-47140572D01*
X96526738Y-47142525D01*
X96897216Y-47144654D01*
X97227136Y-47146973D01*
X97518948Y-47149494D01*
X97775102Y-47152231D01*
X97998048Y-47155198D01*
X98190238Y-47158406D01*
X98354121Y-47161869D01*
X98492148Y-47165601D01*
X98606769Y-47169614D01*
X98700435Y-47173922D01*
X98775597Y-47178538D01*
X98834704Y-47183475D01*
X98880207Y-47188745D01*
X98914557Y-47194363D01*
X98940204Y-47200341D01*
X98959599Y-47206692D01*
X98975191Y-47213430D01*
X98979411Y-47215488D01*
X99212519Y-47373253D01*
X99407232Y-47586607D01*
X99494178Y-47730255D01*
X99507027Y-47758247D01*
X99518459Y-47790689D01*
X99528557Y-47832420D01*
X99537404Y-47888280D01*
X99545083Y-47963109D01*
X99551675Y-48061744D01*
X99557264Y-48189025D01*
X99561933Y-48349791D01*
X99565764Y-48548881D01*
X99568839Y-48791134D01*
X99571241Y-49081390D01*
X99573053Y-49424487D01*
X99574358Y-49825264D01*
X99575238Y-50288561D01*
X99575776Y-50819216D01*
X99576055Y-51422069D01*
X99576156Y-52101958D01*
X99576167Y-52531000D01*
X99576167Y-57166500D01*
X99485270Y-57335833D01*
X99323829Y-57575804D01*
X99126810Y-57750134D01*
X98972603Y-57835768D01*
X98771833Y-57928500D01*
X81605667Y-57934600D01*
X80403164Y-57934941D01*
X79221499Y-57935107D01*
X78063525Y-57935103D01*
X76932095Y-57934932D01*
X75830063Y-57934601D01*
X74760282Y-57934113D01*
X73725605Y-57933473D01*
X72728885Y-57932687D01*
X71772977Y-57931759D01*
X70860732Y-57930693D01*
X69995004Y-57929495D01*
X69178648Y-57928170D01*
X68414515Y-57926721D01*
X67705459Y-57925154D01*
X67054334Y-57923474D01*
X66463992Y-57921685D01*
X65937287Y-57919792D01*
X65477073Y-57917801D01*
X65086202Y-57915715D01*
X64767528Y-57913539D01*
X64523904Y-57911278D01*
X64358183Y-57908938D01*
X64273219Y-57906522D01*
X64262817Y-57905610D01*
X63979446Y-57810872D01*
X63748059Y-57649337D01*
X63568125Y-57420587D01*
X63512530Y-57314666D01*
X63498561Y-57283873D01*
X63486135Y-57251456D01*
X63475162Y-57212538D01*
X63465552Y-57162244D01*
X63457215Y-57095697D01*
X63450059Y-57008020D01*
X63443995Y-56894338D01*
X63438932Y-56749775D01*
X63434780Y-56569454D01*
X63431449Y-56348500D01*
X63428848Y-56082035D01*
X63426887Y-55765184D01*
X63425476Y-55393071D01*
X63424524Y-54960819D01*
X63423940Y-54463552D01*
X63423636Y-53896394D01*
X63423519Y-53254470D01*
X63423500Y-52532902D01*
X63423500Y-52531000D01*
X64206667Y-52531000D01*
X64206692Y-53240974D01*
X64206830Y-53871144D01*
X64207170Y-54426371D01*
X64207804Y-54911516D01*
X64208822Y-55331443D01*
X64210316Y-55691012D01*
X64212377Y-55995086D01*
X64215094Y-56248526D01*
X64218559Y-56456195D01*
X64222863Y-56622954D01*
X64228097Y-56753665D01*
X64234352Y-56853190D01*
X64241718Y-56926390D01*
X64250287Y-56978129D01*
X64260149Y-57013267D01*
X64271395Y-57036666D01*
X64284116Y-57053189D01*
X64291333Y-57060666D01*
X64298963Y-57067750D01*
X64308898Y-57074428D01*
X64323580Y-57080711D01*
X64345451Y-57086611D01*
X64376956Y-57092141D01*
X64420535Y-57097313D01*
X64478631Y-57102138D01*
X64553688Y-57106628D01*
X64648147Y-57110796D01*
X64764451Y-57114653D01*
X64905042Y-57118212D01*
X65072364Y-57121484D01*
X65268858Y-57124482D01*
X65496967Y-57127218D01*
X65759134Y-57129703D01*
X66057800Y-57131950D01*
X66395410Y-57133971D01*
X66774404Y-57135777D01*
X67197227Y-57137381D01*
X67666319Y-57138794D01*
X68184124Y-57140029D01*
X68753085Y-57141098D01*
X69375643Y-57142013D01*
X70054241Y-57142786D01*
X70791322Y-57143428D01*
X71589329Y-57143952D01*
X72450703Y-57144370D01*
X73377888Y-57144694D01*
X74373325Y-57144935D01*
X75439458Y-57145107D01*
X76578729Y-57145220D01*
X77793581Y-57145287D01*
X79086455Y-57145321D01*
X80459794Y-57145332D01*
X81499833Y-57145333D01*
X82932623Y-57145330D01*
X84283188Y-57145314D01*
X85553972Y-57145273D01*
X86747416Y-57145194D01*
X87865964Y-57145065D01*
X88912058Y-57144875D01*
X89888140Y-57144612D01*
X90796654Y-57144263D01*
X91640040Y-57143816D01*
X92420743Y-57143260D01*
X93141205Y-57142583D01*
X93803867Y-57141772D01*
X94411173Y-57140815D01*
X94965565Y-57139701D01*
X95469486Y-57138417D01*
X95925377Y-57136951D01*
X96335683Y-57135292D01*
X96702845Y-57133427D01*
X97029305Y-57131344D01*
X97317506Y-57129032D01*
X97569892Y-57126478D01*
X97788903Y-57123670D01*
X97976984Y-57120596D01*
X98136575Y-57117245D01*
X98270121Y-57113604D01*
X98380062Y-57109661D01*
X98468843Y-57105404D01*
X98538905Y-57100821D01*
X98592691Y-57095900D01*
X98632643Y-57090630D01*
X98661204Y-57084997D01*
X98680817Y-57078991D01*
X98693924Y-57072599D01*
X98702967Y-57065809D01*
X98708333Y-57060666D01*
X98721856Y-57045796D01*
X98733857Y-57026575D01*
X98744426Y-56998139D01*
X98753655Y-56955627D01*
X98761634Y-56894177D01*
X98768454Y-56808927D01*
X98774207Y-56695016D01*
X98778983Y-56547582D01*
X98782872Y-56361762D01*
X98785967Y-56132695D01*
X98788357Y-55855519D01*
X98790133Y-55525372D01*
X98791387Y-55137393D01*
X98792210Y-54686718D01*
X98792691Y-54168487D01*
X98792922Y-53577838D01*
X98792995Y-52909908D01*
X98793000Y-52531000D01*
X98792974Y-51821025D01*
X98792837Y-51190855D01*
X98792496Y-50635628D01*
X98791862Y-50150483D01*
X98790844Y-49730556D01*
X98789350Y-49370987D01*
X98787290Y-49066913D01*
X98784573Y-48813473D01*
X98781107Y-48605804D01*
X98776803Y-48439045D01*
X98771569Y-48308334D01*
X98765314Y-48208809D01*
X98757948Y-48135609D01*
X98749379Y-48083870D01*
X98739518Y-48048732D01*
X98728271Y-48025333D01*
X98715550Y-48008810D01*
X98708333Y-48001333D01*
X98700703Y-47994249D01*
X98690769Y-47987571D01*
X98676087Y-47981288D01*
X98654215Y-47975388D01*
X98622711Y-47969858D01*
X98579132Y-47964686D01*
X98521035Y-47959861D01*
X98445979Y-47955371D01*
X98351520Y-47951203D01*
X98235216Y-47947346D01*
X98094624Y-47943787D01*
X97927303Y-47940515D01*
X97730809Y-47937517D01*
X97502699Y-47934781D01*
X97240533Y-47932296D01*
X96941866Y-47930049D01*
X96604256Y-47928028D01*
X96225262Y-47926222D01*
X95802440Y-47924618D01*
X95333347Y-47923205D01*
X94815542Y-47921970D01*
X94246582Y-47920901D01*
X93624023Y-47919986D01*
X92945425Y-47919213D01*
X92208344Y-47918571D01*
X91410337Y-47918047D01*
X90548963Y-47917629D01*
X89621778Y-47917305D01*
X88626341Y-47917064D01*
X87560208Y-47916892D01*
X86420937Y-47916779D01*
X85206086Y-47916712D01*
X83913212Y-47916678D01*
X82539872Y-47916667D01*
X81499833Y-47916666D01*
X80067044Y-47916669D01*
X78716478Y-47916685D01*
X77445695Y-47916726D01*
X76252250Y-47916805D01*
X75133702Y-47916934D01*
X74087608Y-47917124D01*
X73111526Y-47917387D01*
X72203013Y-47917736D01*
X71359626Y-47918183D01*
X70578923Y-47918739D01*
X69858462Y-47919416D01*
X69195799Y-47920227D01*
X68588493Y-47921184D01*
X68034101Y-47922298D01*
X67530181Y-47923582D01*
X67074289Y-47925048D01*
X66663983Y-47926707D01*
X66296822Y-47928572D01*
X65970361Y-47930655D01*
X65682160Y-47932967D01*
X65429775Y-47935521D01*
X65210763Y-47938329D01*
X65022683Y-47941403D01*
X64863091Y-47944754D01*
X64729546Y-47948395D01*
X64619604Y-47952338D01*
X64530823Y-47956595D01*
X64460761Y-47961178D01*
X64406975Y-47966099D01*
X64367023Y-47971369D01*
X64338462Y-47977002D01*
X64318849Y-47983008D01*
X64305743Y-47989400D01*
X64296700Y-47996190D01*
X64291333Y-48001333D01*
X64277810Y-48016203D01*
X64265810Y-48035424D01*
X64255240Y-48063860D01*
X64246012Y-48106372D01*
X64238032Y-48167822D01*
X64231212Y-48253072D01*
X64225459Y-48366983D01*
X64220684Y-48514417D01*
X64216794Y-48700237D01*
X64213700Y-48929304D01*
X64211310Y-49206480D01*
X64209533Y-49536627D01*
X64208279Y-49924606D01*
X64207457Y-50375281D01*
X64206975Y-50893512D01*
X64206744Y-51484161D01*
X64206671Y-52152091D01*
X64206667Y-52531000D01*
X63423500Y-52531000D01*
X63423500Y-47895500D01*
X63548903Y-47669101D01*
X63725176Y-47432955D01*
X63953240Y-47261178D01*
X64224304Y-47160156D01*
X64259040Y-47153140D01*
X64322173Y-47149382D01*
X64469181Y-47145847D01*
X64699273Y-47142536D01*
X65011658Y-47139452D01*
X65405544Y-47136595D01*
X65880142Y-47133966D01*
X66434658Y-47131568D01*
X67068303Y-47129401D01*
X67780286Y-47127467D01*
X68569814Y-47125768D01*
X69436097Y-47124304D01*
X70378344Y-47123077D01*
X71395763Y-47122089D01*
X72487564Y-47121341D01*
X73652955Y-47120833D01*
X74891145Y-47120569D01*
X76201343Y-47120548D01*
X77582758Y-47120773D01*
X77582758Y-47120773D01*
G37*
X77582758Y-47120773D02*
X79034599Y-47121245D01*
X80556074Y-47121965D01*
X81648642Y-47122608D01*
X83083536Y-47123524D01*
X84436214Y-47124406D01*
X85709126Y-47125268D01*
X86904723Y-47126122D01*
X88025455Y-47126982D01*
X89073773Y-47127860D01*
X90052126Y-47128771D01*
X90962966Y-47129727D01*
X91808743Y-47130741D01*
X92591907Y-47131826D01*
X93314909Y-47132996D01*
X93980199Y-47134263D01*
X94590227Y-47135642D01*
X95147445Y-47137144D01*
X95654303Y-47138783D01*
X96113250Y-47140572D01*
X96526738Y-47142525D01*
X96897216Y-47144654D01*
X97227136Y-47146973D01*
X97518948Y-47149494D01*
X97775102Y-47152231D01*
X97998048Y-47155198D01*
X98190238Y-47158406D01*
X98354121Y-47161869D01*
X98492148Y-47165601D01*
X98606769Y-47169614D01*
X98700435Y-47173922D01*
X98775597Y-47178538D01*
X98834704Y-47183475D01*
X98880207Y-47188745D01*
X98914557Y-47194363D01*
X98940204Y-47200341D01*
X98959599Y-47206692D01*
X98975191Y-47213430D01*
X98979411Y-47215488D01*
X99212519Y-47373253D01*
X99407232Y-47586607D01*
X99494178Y-47730255D01*
X99507027Y-47758247D01*
X99518459Y-47790689D01*
X99528557Y-47832420D01*
X99537404Y-47888280D01*
X99545083Y-47963109D01*
X99551675Y-48061744D01*
X99557264Y-48189025D01*
X99561933Y-48349791D01*
X99565764Y-48548881D01*
X99568839Y-48791134D01*
X99571241Y-49081390D01*
X99573053Y-49424487D01*
X99574358Y-49825264D01*
X99575238Y-50288561D01*
X99575776Y-50819216D01*
X99576055Y-51422069D01*
X99576156Y-52101958D01*
X99576167Y-52531000D01*
X99576167Y-57166500D01*
X99485270Y-57335833D01*
X99323829Y-57575804D01*
X99126810Y-57750134D01*
X98972603Y-57835768D01*
X98771833Y-57928500D01*
X81605667Y-57934600D01*
X80403164Y-57934941D01*
X79221499Y-57935107D01*
X78063525Y-57935103D01*
X76932095Y-57934932D01*
X75830063Y-57934601D01*
X74760282Y-57934113D01*
X73725605Y-57933473D01*
X72728885Y-57932687D01*
X71772977Y-57931759D01*
X70860732Y-57930693D01*
X69995004Y-57929495D01*
X69178648Y-57928170D01*
X68414515Y-57926721D01*
X67705459Y-57925154D01*
X67054334Y-57923474D01*
X66463992Y-57921685D01*
X65937287Y-57919792D01*
X65477073Y-57917801D01*
X65086202Y-57915715D01*
X64767528Y-57913539D01*
X64523904Y-57911278D01*
X64358183Y-57908938D01*
X64273219Y-57906522D01*
X64262817Y-57905610D01*
X63979446Y-57810872D01*
X63748059Y-57649337D01*
X63568125Y-57420587D01*
X63512530Y-57314666D01*
X63498561Y-57283873D01*
X63486135Y-57251456D01*
X63475162Y-57212538D01*
X63465552Y-57162244D01*
X63457215Y-57095697D01*
X63450059Y-57008020D01*
X63443995Y-56894338D01*
X63438932Y-56749775D01*
X63434780Y-56569454D01*
X63431449Y-56348500D01*
X63428848Y-56082035D01*
X63426887Y-55765184D01*
X63425476Y-55393071D01*
X63424524Y-54960819D01*
X63423940Y-54463552D01*
X63423636Y-53896394D01*
X63423519Y-53254470D01*
X63423500Y-52532902D01*
X63423500Y-52531000D01*
X64206667Y-52531000D01*
X64206692Y-53240974D01*
X64206830Y-53871144D01*
X64207170Y-54426371D01*
X64207804Y-54911516D01*
X64208822Y-55331443D01*
X64210316Y-55691012D01*
X64212377Y-55995086D01*
X64215094Y-56248526D01*
X64218559Y-56456195D01*
X64222863Y-56622954D01*
X64228097Y-56753665D01*
X64234352Y-56853190D01*
X64241718Y-56926390D01*
X64250287Y-56978129D01*
X64260149Y-57013267D01*
X64271395Y-57036666D01*
X64284116Y-57053189D01*
X64291333Y-57060666D01*
X64298963Y-57067750D01*
X64308898Y-57074428D01*
X64323580Y-57080711D01*
X64345451Y-57086611D01*
X64376956Y-57092141D01*
X64420535Y-57097313D01*
X64478631Y-57102138D01*
X64553688Y-57106628D01*
X64648147Y-57110796D01*
X64764451Y-57114653D01*
X64905042Y-57118212D01*
X65072364Y-57121484D01*
X65268858Y-57124482D01*
X65496967Y-57127218D01*
X65759134Y-57129703D01*
X66057800Y-57131950D01*
X66395410Y-57133971D01*
X66774404Y-57135777D01*
X67197227Y-57137381D01*
X67666319Y-57138794D01*
X68184124Y-57140029D01*
X68753085Y-57141098D01*
X69375643Y-57142013D01*
X70054241Y-57142786D01*
X70791322Y-57143428D01*
X71589329Y-57143952D01*
X72450703Y-57144370D01*
X73377888Y-57144694D01*
X74373325Y-57144935D01*
X75439458Y-57145107D01*
X76578729Y-57145220D01*
X77793581Y-57145287D01*
X79086455Y-57145321D01*
X80459794Y-57145332D01*
X81499833Y-57145333D01*
X82932623Y-57145330D01*
X84283188Y-57145314D01*
X85553972Y-57145273D01*
X86747416Y-57145194D01*
X87865964Y-57145065D01*
X88912058Y-57144875D01*
X89888140Y-57144612D01*
X90796654Y-57144263D01*
X91640040Y-57143816D01*
X92420743Y-57143260D01*
X93141205Y-57142583D01*
X93803867Y-57141772D01*
X94411173Y-57140815D01*
X94965565Y-57139701D01*
X95469486Y-57138417D01*
X95925377Y-57136951D01*
X96335683Y-57135292D01*
X96702845Y-57133427D01*
X97029305Y-57131344D01*
X97317506Y-57129032D01*
X97569892Y-57126478D01*
X97788903Y-57123670D01*
X97976984Y-57120596D01*
X98136575Y-57117245D01*
X98270121Y-57113604D01*
X98380062Y-57109661D01*
X98468843Y-57105404D01*
X98538905Y-57100821D01*
X98592691Y-57095900D01*
X98632643Y-57090630D01*
X98661204Y-57084997D01*
X98680817Y-57078991D01*
X98693924Y-57072599D01*
X98702967Y-57065809D01*
X98708333Y-57060666D01*
X98721856Y-57045796D01*
X98733857Y-57026575D01*
X98744426Y-56998139D01*
X98753655Y-56955627D01*
X98761634Y-56894177D01*
X98768454Y-56808927D01*
X98774207Y-56695016D01*
X98778983Y-56547582D01*
X98782872Y-56361762D01*
X98785967Y-56132695D01*
X98788357Y-55855519D01*
X98790133Y-55525372D01*
X98791387Y-55137393D01*
X98792210Y-54686718D01*
X98792691Y-54168487D01*
X98792922Y-53577838D01*
X98792995Y-52909908D01*
X98793000Y-52531000D01*
X98792974Y-51821025D01*
X98792837Y-51190855D01*
X98792496Y-50635628D01*
X98791862Y-50150483D01*
X98790844Y-49730556D01*
X98789350Y-49370987D01*
X98787290Y-49066913D01*
X98784573Y-48813473D01*
X98781107Y-48605804D01*
X98776803Y-48439045D01*
X98771569Y-48308334D01*
X98765314Y-48208809D01*
X98757948Y-48135609D01*
X98749379Y-48083870D01*
X98739518Y-48048732D01*
X98728271Y-48025333D01*
X98715550Y-48008810D01*
X98708333Y-48001333D01*
X98700703Y-47994249D01*
X98690769Y-47987571D01*
X98676087Y-47981288D01*
X98654215Y-47975388D01*
X98622711Y-47969858D01*
X98579132Y-47964686D01*
X98521035Y-47959861D01*
X98445979Y-47955371D01*
X98351520Y-47951203D01*
X98235216Y-47947346D01*
X98094624Y-47943787D01*
X97927303Y-47940515D01*
X97730809Y-47937517D01*
X97502699Y-47934781D01*
X97240533Y-47932296D01*
X96941866Y-47930049D01*
X96604256Y-47928028D01*
X96225262Y-47926222D01*
X95802440Y-47924618D01*
X95333347Y-47923205D01*
X94815542Y-47921970D01*
X94246582Y-47920901D01*
X93624023Y-47919986D01*
X92945425Y-47919213D01*
X92208344Y-47918571D01*
X91410337Y-47918047D01*
X90548963Y-47917629D01*
X89621778Y-47917305D01*
X88626341Y-47917064D01*
X87560208Y-47916892D01*
X86420937Y-47916779D01*
X85206086Y-47916712D01*
X83913212Y-47916678D01*
X82539872Y-47916667D01*
X81499833Y-47916666D01*
X80067044Y-47916669D01*
X78716478Y-47916685D01*
X77445695Y-47916726D01*
X76252250Y-47916805D01*
X75133702Y-47916934D01*
X74087608Y-47917124D01*
X73111526Y-47917387D01*
X72203013Y-47917736D01*
X71359626Y-47918183D01*
X70578923Y-47918739D01*
X69858462Y-47919416D01*
X69195799Y-47920227D01*
X68588493Y-47921184D01*
X68034101Y-47922298D01*
X67530181Y-47923582D01*
X67074289Y-47925048D01*
X66663983Y-47926707D01*
X66296822Y-47928572D01*
X65970361Y-47930655D01*
X65682160Y-47932967D01*
X65429775Y-47935521D01*
X65210763Y-47938329D01*
X65022683Y-47941403D01*
X64863091Y-47944754D01*
X64729546Y-47948395D01*
X64619604Y-47952338D01*
X64530823Y-47956595D01*
X64460761Y-47961178D01*
X64406975Y-47966099D01*
X64367023Y-47971369D01*
X64338462Y-47977002D01*
X64318849Y-47983008D01*
X64305743Y-47989400D01*
X64296700Y-47996190D01*
X64291333Y-48001333D01*
X64277810Y-48016203D01*
X64265810Y-48035424D01*
X64255240Y-48063860D01*
X64246012Y-48106372D01*
X64238032Y-48167822D01*
X64231212Y-48253072D01*
X64225459Y-48366983D01*
X64220684Y-48514417D01*
X64216794Y-48700237D01*
X64213700Y-48929304D01*
X64211310Y-49206480D01*
X64209533Y-49536627D01*
X64208279Y-49924606D01*
X64207457Y-50375281D01*
X64206975Y-50893512D01*
X64206744Y-51484161D01*
X64206671Y-52152091D01*
X64206667Y-52531000D01*
X63423500Y-52531000D01*
X63423500Y-47895500D01*
X63548903Y-47669101D01*
X63725176Y-47432955D01*
X63953240Y-47261178D01*
X64224304Y-47160156D01*
X64259040Y-47153140D01*
X64322173Y-47149382D01*
X64469181Y-47145847D01*
X64699273Y-47142536D01*
X65011658Y-47139452D01*
X65405544Y-47136595D01*
X65880142Y-47133966D01*
X66434658Y-47131568D01*
X67068303Y-47129401D01*
X67780286Y-47127467D01*
X68569814Y-47125768D01*
X69436097Y-47124304D01*
X70378344Y-47123077D01*
X71395763Y-47122089D01*
X72487564Y-47121341D01*
X73652955Y-47120833D01*
X74891145Y-47120569D01*
X76201343Y-47120548D01*
X77582758Y-47120773D01*
D13*
X73900000Y-55675000D02*
X73900000Y-49325000D01*
X62500000Y-54900000D02*
X60100000Y-54900000D01*
X60100000Y-50100000D02*
X60100000Y-54900000D01*
X60100000Y-50100000D02*
X62500000Y-50100000D01*
X62500000Y-55675000D02*
X62500000Y-49325000D01*
X62500000Y-49325000D02*
X73900000Y-49325000D01*
X73900000Y-55675000D02*
X62500000Y-55675000D01*
D14*
X97350000Y-39250000D02*
X97350000Y-39050000D01*
X97350000Y-39050000D02*
X97150000Y-39050000D01*
X97150000Y-39050000D02*
X97350000Y-39250000D01*
X97450000Y-39450000D02*
X97450000Y-38950000D01*
X97450000Y-38950000D02*
X96950000Y-38950000D01*
D11*
X96950000Y-38950000D02*
X97450000Y-39450000D01*
D14*
X96750000Y-38850000D02*
X97550000Y-39650000D01*
X97550000Y-39650000D02*
X97550000Y-38850000D01*
X97550000Y-38850000D02*
X96750000Y-38850000D01*
X91600000Y-39750000D02*
X91600000Y-39550000D01*
X91600000Y-39550000D02*
X91400000Y-39550000D01*
X91400000Y-39550000D02*
X91600000Y-39750000D01*
X91700000Y-39950000D02*
X91700000Y-39450000D01*
X91700000Y-39450000D02*
X91200000Y-39450000D01*
D11*
X91200000Y-39450000D02*
X91700000Y-39950000D01*
D14*
X91000000Y-39350000D02*
X91800000Y-40150000D01*
X91800000Y-40150000D02*
X91800000Y-39350000D01*
X91800000Y-39350000D02*
X91000000Y-39350000D01*
D11*
X66916667Y-52904762D02*
X67059524Y-52952381D01*
X67297620Y-52952381D01*
X67392858Y-52904762D01*
X67440477Y-52857143D01*
X67488096Y-52761905D01*
X67488096Y-52666667D01*
X67440477Y-52571429D01*
X67392858Y-52523810D01*
X67297620Y-52476190D01*
X67107143Y-52428571D01*
X67011905Y-52380952D01*
X66964286Y-52333333D01*
X66916667Y-52238095D01*
X66916667Y-52142857D01*
X66964286Y-52047619D01*
X67011905Y-52000000D01*
X67107143Y-51952381D01*
X67345239Y-51952381D01*
X67488096Y-52000000D01*
X67821429Y-51952381D02*
X68059524Y-52952381D01*
X68250001Y-52238095D01*
X68440477Y-52952381D01*
X68678572Y-51952381D01*
X69583334Y-52952381D02*
X69011905Y-52952381D01*
X69297619Y-52952381D02*
X69297619Y-51952381D01*
X69202381Y-52095238D01*
X69107143Y-52190476D01*
X69011905Y-52238095D01*
M02*
